# This file uses centimeters as units for non-parametric coordinates.

g default
v -0.185484 -0.130591 2.278683
v 0.263066 -0.040890 2.278683
v -0.185484 0.642286 2.278683
v 0.263066 0.140568 2.278683
v 0.782492 0.736448 2.278683
v 0.092747 0.500672 2.278683
v 0.088959 0.140475 2.278683
v 0.644304 0.370756 2.278683
v 0.962741 0.736448 2.278683
v 1.268473 0.428093 2.278683
v 1.268473 -0.399192 2.278683
v 1.268473 -0.046736 2.278683
v 0.263066 -0.839094 2.278683
v 1.084619 -0.161744 2.278683
v 0.973309 -0.372414 2.278683
v 0.910225 -0.854759 2.278683
v 0.674041 -1.371612 2.278683
v 0.498128 -1.367663 2.278683
v 0.290263 -0.530778 2.278683
v 0.605862 0.090938 2.278683
v 0.506555 -0.331353 2.278912
v -0.466054 0.546191 2.278683
v -0.519401 0.274166 2.278683
v -0.606372 0.207700 2.278683
v -0.817304 0.485685 2.278683
v -1.032283 0.511431 2.278683
v -1.290264 -0.044679 2.278683
v -1.146894 -0.247089 2.278683
v -0.371629 0.017739 2.278253
v -0.306274 -0.792404 2.278683
v -0.455668 -1.127162 2.278683
v -0.441902 -1.403879 2.278683
v -0.535202 -1.535678 2.278683
v -0.786546 -1.211560 2.278683
v -0.551607 -0.651867 2.278683
v -0.486781 -0.193192 2.278683
v -0.255489 -0.851643 2.278683
v -0.383786 -1.660361 2.278683
v -0.349500 -1.088283 2.278683
v -0.271034 -1.390701 2.278683
v -0.879142 -1.660361 2.278683
v -0.704881 -1.660361 2.278683
v -0.855340 -1.520111 2.278683
v -0.995215 -1.660361 2.278683
v -1.623178 -0.423228 2.278683
v -1.073808 -1.577976 2.278683
v -1.329817 -1.536835 2.278683
v -1.487087 -1.314897 2.278683
v -1.501287 -0.956309 2.278683
v -1.306991 -0.720492 2.278683
v -0.985866 -0.676016 2.278683
v -0.904022 -0.443330 2.278683
v -0.859678 -0.299532 2.278683
v -0.969130 -0.279039 2.278683
v -1.016918 -0.368066 2.278683
v -1.341480 -0.470829 2.278683
v -1.541385 -0.274888 2.278683
v -1.353874 -0.370781 2.278683
v -0.185484 0.200786 2.278683
v 0.623537 -0.005821 2.279510
v 0.745089 -1.082867 2.278683
v -1.162861 0.188637 2.278683
vt 0.450747 0.465336
vt 0.569763 0.489131
vt 0.450747 0.670399
vt 0.569763 0.537275
vt 0.707584 0.695356
vt 0.524571 0.632820
vt 0.523566 0.537254
vt 0.670918 0.598340
vt 0.755411 0.695352
vt 0.836532 0.613539
vt 0.836532 0.394067
vt 0.836532 0.487571
vt 0.569763 0.277356
vt 0.787749 0.457062
vt 0.758215 0.401172
vt 0.741211 0.273225
vt 0.678657 0.136603
vt 0.632354 0.137714
vt 0.577257 0.359024
vt 0.660718 0.524104
vt 0.634522 0.411951
vt 0.376302 0.644910
vt 0.362147 0.572737
vt 0.339029 0.554757
vt 0.282981 0.627437
vt 0.226425 0.634299
vt 0.157736 0.487728
vt 0.195577 0.434433
vt 0.401330 0.504684
vt 0.420071 0.288652
vt 0.379058 0.200922
vt 0.382710 0.127502
vt 0.357930 0.092536
vt 0.291238 0.178532
vt 0.353602 0.327031
vt 0.370802 0.448729
vt 0.431070 0.274115
vt 0.398130 0.059444
vt 0.407212 0.211168
vt 0.428047 0.130998
vt 0.266695 0.059431
vt 0.312933 0.059436
vt 0.273011 0.096647
vt 0.235897 0.059428
vt 0.070243 0.389326
vt 0.215044 0.081287
vt 0.147116 0.092197
vt 0.105386 0.151086
vt 0.101619 0.246240
vt 0.153172 0.308817
vt 0.238378 0.320625
vt 0.260094 0.382364
vt 0.271860 0.420517
vt 0.242818 0.425956
vt 0.230139 0.402335
vt 0.144021 0.375064
vt 0.090961 0.426044
vt 0.140725 0.401739
vt 0.450747 0.553258
vt 0.665513 0.498322
vt 0.697292 0.212931
vt 0.191525 0.549435
vn -0.000293 -0.000242 1.000000
vn 0.000000 -0.000000 1.000000
vn 0.000000 -0.000000 1.000000
vn 0.000000 -0.000000 1.000000
vn 0.000000 -0.000000 1.000000
vn 0.000000 -0.000000 1.000000
vn 0.000000 -0.000000 1.000000
vn 0.000000 -0.000000 1.000000
vn -0.000313 -0.000258 1.000000
vn 0.000000 -0.000000 1.000000
vn -0.000477 0.002298 0.999997
vn -0.000477 0.002298 0.999997
vn -0.000477 0.002298 0.999997
vn -0.000803 -0.000662 1.000000
vn -0.001275 -0.001051 0.999999
vn 0.000000 -0.000000 1.000000
vn 0.000000 -0.000000 1.000000
vn 0.000000 -0.000000 1.000000
vn 0.000000 -0.000000 1.000000
vn 0.000000 -0.000000 1.000000
vn 0.000000 -0.000000 1.000000
vn 0.001456 0.002759 0.999995
vn 0.001456 0.002759 0.999995
vn 0.001084 0.000261 0.999999
vn 0.001115 0.000470 0.999999
vn 0.000000 -0.000000 1.000000
vn 0.000000 -0.000000 1.000000
vn 0.000000 -0.000000 1.000000
vn 0.000000 -0.000000 1.000000
vn 0.000000 -0.000000 1.000000
vn 0.000000 -0.000000 1.000000
vn 0.000000 -0.000000 1.000000
vn 0.000000 -0.000000 1.000000
vn 0.000000 -0.000000 1.000000
vn 0.000000 -0.000000 1.000000
vn 0.000000 -0.000000 1.000000
vn 0.000826 -0.001466 0.999999
vn 0.000826 -0.001466 0.999999
vn 0.000086 -0.000371 1.000000
vn 0.000086 -0.000371 1.000000
vn 0.000086 -0.000371 1.000000
vn 0.000086 -0.000371 1.000000
vn 0.000000 -0.000000 1.000000
vn 0.000000 -0.000000 1.000000
vn -0.000000 -0.000000 1.000000
vn -0.000000 -0.000000 1.000000
vn -0.000000 -0.000000 1.000000
vn -0.000000 -0.000000 1.000000
vn -0.000000 -0.000000 1.000000
vn -0.000000 -0.000000 1.000000
vn -0.000000 -0.000000 1.000000
vn -0.000000 -0.000000 1.000000
vn 0.000000 -0.000000 1.000000
vn 0.000000 -0.000000 1.000000
vn 0.000000 -0.000000 1.000000
vn 0.000000 -0.000000 1.000000
vn 0.000000 -0.000000 1.000000
vn 0.000000 -0.000000 1.000000
vn 0.000000 -0.000000 1.000000
vn -0.000000 -0.000000 1.000000
vn -0.000000 -0.000000 1.000000
vn -0.000000 -0.000000 1.000000
vn -0.000000 -0.000000 1.000000
vn 0.000000 -0.000000 1.000000
vn 0.000000 -0.000000 1.000000
vn 0.000000 -0.000000 1.000000
vn 0.000000 -0.000000 1.000000
vn 0.000000 -0.000000 1.000000
vn 0.000000 -0.000000 1.000000
vn 0.000000 -0.000000 1.000000
vn 0.000000 -0.000000 1.000000
vn 0.000000 -0.000000 1.000000
vn 0.000000 -0.000000 1.000000
vn 0.000000 -0.000000 1.000000
vn 0.000000 -0.000000 1.000000
vn -0.000000 -0.000000 1.000000
vn -0.000000 -0.000000 1.000000
vn -0.000000 -0.000000 1.000000
vn -0.000000 -0.000000 1.000000
vn -0.000000 -0.000000 1.000000
vn -0.000000 -0.000000 1.000000
vn -0.000000 -0.000000 1.000000
vn -0.000000 -0.000000 1.000000
vn 0.000000 -0.000000 1.000000
vn 0.000000 -0.000000 1.000000
vn 0.000000 -0.000000 1.000000
vn 0.000000 -0.000000 1.000000
vn 0.000585 0.000175 1.000000
vn 0.000585 0.000175 1.000000
vn 0.000585 0.000175 1.000000
vn 0.000585 0.000175 1.000000
vn 0.000585 0.000175 1.000000
vn -0.000000 -0.000000 1.000000
vn -0.000000 -0.000000 1.000000
vn -0.000000 -0.000000 1.000000
vn -0.000000 -0.000000 1.000000
vn -0.000000 -0.000000 1.000000
vn -0.000000 -0.000000 1.000000
vn -0.000000 -0.000000 1.000000
vn -0.000000 -0.000000 1.000000
vn 0.000000 -0.000000 1.000000
vn 0.000000 -0.000000 1.000000
vn 0.000000 -0.000000 1.000000
vn 0.000000 -0.000000 1.000000
vn -0.000000 -0.000000 1.000000
vn 0.000000 -0.000000 1.000000
vn 0.000000 -0.000000 1.000000
vn 0.000000 -0.000000 1.000000
vn -0.000000 -0.000000 1.000000
vn -0.000000 -0.000000 1.000000
vn -0.000000 -0.000000 1.000000
vn -0.000000 -0.000000 1.000000
s 1
g SM_Fire_pic_effect
f 59/59/1 7/7/2 6/6/3 3/3/4
s off
f 5/5/5 8/8/6 10/10/7 9/9/8
s 1
f 23/23/9 59/59/1 3/3/4 22/22/10
s off
f 29/29/11 36/36/12 1/1/13
s 1
f 1/1/14 7/7/2 59/59/1
f 29/29/15 1/1/14 59/59/1 23/23/9
s 2
f 4/4/16 7/7/17 1/1/18 2/2/19
f 20/20/20 8/8/21 4/4/16 2/2/19
s 3
f 12/12/22 20/20/23 60/60/24 14/14/25
s off
f 10/10/26 8/8/27 20/20/28 12/12/29
f 14/14/30 15/15/31 11/11/32
s 4
f 16/16/33 19/19/34 13/13/35 61/61/36
s 3
f 14/14/25 60/60/24 21/21/37 15/15/38
s off
f 15/15/39 21/21/40 19/19/41 16/16/42
s 4
f 61/61/36 13/13/35 18/18/43 17/17/44
s off
f 31/31/45 39/39/46 37/37/47 30/30/48
f 32/32/49 40/40/50 39/39/51 31/31/52
f 33/33/53 38/38/54 40/40/55 32/32/56
f 33/33/57 42/42/58 38/38/59
f 34/34/60 43/43/61 42/42/62 33/33/63
f 43/43/64 46/46/65 44/44/66 41/41/67
f 34/34/68 47/47/69 46/46/70 43/43/71
f 48/48/72 51/51/73 50/50/74 49/49/75
f 34/34/76 51/51/77 48/48/78 47/47/79
f 35/35/80 52/52/81 51/51/82 34/34/83
f 36/36/84 53/53/85 52/52/86 35/35/87
f 24/24/88 54/54/89 53/53/90 36/36/91 29/29/92
s 5
f 25/25/93 26/26/94 62/62/95 24/24/96
s off
f 54/54/97 62/62/98 27/27/99 28/28/100
f 55/55/101 28/28/102 58/58/103 56/56/104
s 5
f 24/24/96 62/62/95 54/54/105
s off
f 54/54/106 28/28/107 55/55/108
f 56/56/109 58/58/110 57/57/111 45/45/112
